# xmcd CD database file
#
# Track frame offsets:
#	150
#	12718
#	27074
#	40481
#	53601
#	67695
#	80979
#	95618
#	109337
#	122358
#	133826
#	147263
#	156564
#	175934
#	191434
#	199958
#	207845
#	217585
#	227497
#	238593
#	256709
#	266294
#	279494
#	291869
#	305141
#
# Disc length: 4367 seconds
#
# Revision: 2
# Processed by: cddbd v1.5PL3 Copyright (c) Steve Scherf et al.
# Submitted via: CDex 1.50
#
DISCID=6b110d19
DTITLE=Leadbelly - The Definitive Leadbelly [CDOne)
DYEAR=2002
DGENRE=Blues
TTITLE0=Grasshopper In My Pillow
TTITLE1=Tight Like That
TTITLE2=C.C. Rider
TTITLE3=Well You Know I Had To Do It
TTITLE4=Alberta
TTITLE5=Sweet Mary Blues
TTITLE6=New Orleans
TTITLE7=New York City
TTITLE8=Baby, Don't You Love Me No More?
TTITLE9=Thirty Days In The Work House
TTITLE10=You Cain' Loose-A-Me Cholly
TTITLE11=Midnight Special
TTITLE12=I'm Leavin' On The Midnight Train
TTITLE13=Fannin' Street
TTITLE14=Goodnight Irene
TTITLE15=Pick A Bale Of Cotton
TTITLE16=Black Girl
TTITLE17=Turn Yo' Radio On
TTITLE18=Children's Blues
TTITLE19=John Henry
TTITLE20=Corn Bread Rough
TTITLE21=Can't You Line 'Em
TTITLE22=Ella Speed
TTITLE23=Tell Me Baby
TTITLE24=Go Down, Old Hannah
EXTD=YEAR: 2002
EXTT0=
EXTT1=
EXTT2=
EXTT3=
EXTT4=
EXTT5=
EXTT6=
EXTT7=
EXTT8=
EXTT9=
EXTT10=
EXTT11=
EXTT12=
EXTT13=
EXTT14=
EXTT15=
EXTT16=
EXTT17=
EXTT18=
EXTT19=
EXTT20=
EXTT21=
EXTT22=
EXTT23=
EXTT24=
PLAYORDER=
